<svg xmlns="http://www.w3.org/2000/svg" xmlns:xlink="http://www.w3.org/1999/xlink" width="500" zoomAndPan="magnify" viewBox="0 0 375 374.999991" height="500" preserveAspectRatio="xMidYMid meet" version="1.0"><defs><clipPath id="id1"><path d="M 127 135 L 367.070312 135 L 367.070312 360.21875 L 127 360.21875 Z M 127 135 " clip-rule="nonzero"/></clipPath><clipPath id="id2"><path d="M 7.820312 120 L 188 120 L 188 360.21875 L 7.820312 360.21875 Z M 7.820312 120 " clip-rule="nonzero"/></clipPath></defs><g clip-path="url(#id1)"><path fill="#fcbf49" d="M 305.199219 135.347656 C 305.082031 178.78125 281.898438 216.78125 247.265625 237.726562 C 229.21875 248.632812 208.066406 254.917969 185.453125 254.917969 C 164.457031 254.917969 144.742188 249.496094 127.582031 239.988281 C 127.582031 240.101562 127.574219 240.210938 127.574219 240.320312 C 127.574219 284.691406 151.664062 323.402344 187.449219 344.140625 C 205.070312 354.351562 225.503906 360.21875 247.324219 360.21875 C 313.464844 360.21875 367.078125 306.539062 367.078125 240.320312 C 367.078125 195.121094 342.09375 155.777344 305.199219 135.347656 " fill-opacity="1" fill-rule="nonzero"/></g><path fill="#f77f00" d="M 185.453125 15.105469 C 119.316406 15.105469 65.703125 68.796875 65.703125 135.015625 C 65.703125 135.886719 65.75 136.742188 65.773438 137.613281 C 83.808594 126.703125 104.960938 120.417969 127.574219 120.417969 C 149.394531 120.417969 169.835938 126.292969 187.449219 136.496094 C 222.53125 156.824219 246.339844 194.441406 247.265625 237.726562 C 281.898438 216.78125 305.082031 178.78125 305.199219 135.347656 C 305.199219 135.230469 305.207031 135.125 305.207031 135.015625 C 305.207031 68.796875 251.59375 15.105469 185.453125 15.105469 " fill-opacity="1" fill-rule="nonzero"/><g clip-path="url(#id2)"><path fill="#d62828" d="M 127.574219 240.320312 C 127.574219 240.210938 127.582031 240.101562 127.582031 239.988281 C 127.703125 195.753906 151.757812 157.179688 187.449219 136.496094 C 169.835938 126.292969 149.394531 120.417969 127.574219 120.417969 C 104.960938 120.417969 83.808594 126.703125 65.773438 137.613281 C 31.042969 158.605469 7.820312 196.746094 7.820312 240.320312 C 7.820312 306.539062 61.433594 360.21875 127.574219 360.21875 C 149.394531 360.21875 169.835938 354.351562 187.449219 344.140625 C 151.664062 323.402344 127.574219 284.691406 127.574219 240.320312 " fill-opacity="1" fill-rule="nonzero"/></g></svg>